<svg xmlns="http://www.w3.org/2000/svg" viewBox="0 0 113.225 31.338">
  <defs>
    <style>
      .cls-1 {
        fill: #0097d6;
        fill-rule: evenodd;
      }
    </style>
  </defs>
  <g id="Group_1" data-name="Group 1" transform="translate(-43 -21)">
    <path id="Fill-1" class="cls-1" d="M16.631,24.9c-1.086-2.137-2.36-4.3-4.844-4.3a3.319,3.319,0,0,0-1.385.277l-.844-1.689a7.4,7.4,0,0,1,4.827-1.582,7.034,7.034,0,0,1,6.384,3.645,17.09,17.09,0,0,0,1.186-7.022c0-7.293-2.281-11.038-7.609-11.038-5.25,0-7.519,3.745-7.519,11.038,0,7.255,2.268,10.961,7.519,10.961a8.113,8.113,0,0,0,2.285-.294Zm1.3,2.545a13.957,13.957,0,0,1-3.586.479A13.817,13.817,0,0,1,.51,14.228a13.862,13.862,0,0,1,27.724,0,13.329,13.329,0,0,1-5.241,10.7c1,1.5,2.036,2.5,3.474,2.5a2.273,2.273,0,0,0,2.308-2.164h2.044c.119,1.266-.514,6.53-6.226,6.53-3.46,0-5.289-2.005-6.66-4.357Z" transform="translate(42.49 20.541)"/>
    <path id="Fill-2" class="cls-1" d="M55.176,25.546V16.168c0-1.068-.395-1.543-1.621-1.543H52.249V12.133h8.533V25.428c0,2.241,1.213,3.23,3.06,3.23a4.226,4.226,0,0,0,3.851-2.2V16.168c0-1.068-.4-1.543-1.622-1.543H64.687V12.133H73.3V26.059c0,1.387.514,2.019,2.1,2.019h.277V30.65l-7.7,1.226V29.226h-.159a8.082,8.082,0,0,1-6.581,3.046c-3.363,0-6.055-1.7-6.055-6.726" transform="translate(20.042 15.476)"/>
    <path id="Fill-3" class="cls-1" d="M105.419,29.385c3.034,0,4.186-2.639,4.247-7.953.059-5.2-1.213-7.715-4.247-7.715-2.651,0-4.313,2.518-4.313,7.715,0,5.315,1.635,7.953,4.313,7.953Zm0,2.492A10.306,10.306,0,0,1,94.985,21.432a10.109,10.109,0,0,1,10.434-10.209c5.843,0,10.525,4.154,10.525,10.209a10.173,10.173,0,0,1-10.525,10.446Z" transform="translate(1.5 15.871)"/>
    <path id="Fill-4" class="cls-1" d="M132.319,31.572V29.08h.831c2.058,0,2.255-.593,2.255-2.374V15.864c0-1.068-.554-1.543-1.82-1.543h-1.108V11.829h7.82l.4,4.076h.159a5.83,5.83,0,0,1,5.393-4.472,2.942,2.942,0,0,1,3.218,3.114c0,1.45-.7,2.994-2.65,2.994-1.755,0-2.1-1.188-3.548-1.188-1.292,0-2.3,1.227-2.3,3.033v7.321c0,1.78.436,2.374,2.454,2.374h1.147v2.493H132.319" transform="translate(-14.699 15.78)"/>
    <path id="Fill-5" class="cls-1" d="M172.1,28.58c2.493,0,3.521-2.361,3.521-4.733V20.68c-1.82,1.885-6.054,1.951-6.054,5.315A2.352,2.352,0,0,0,172.1,28.58Zm3.641-.014a6.5,6.5,0,0,1-6.094,3.311c-3.429,0-5.645-1.821-5.645-5.025,0-6.448,8.982-4.734,11.619-9.007v-.463c0-3.284-1.292-3.8-2.717-3.8-4,0-2.177,4.3-5.857,4.3a2.164,2.164,0,0,1-2.453-2.267c0-2.427,2.9-4.393,8.35-4.393,5.156,0,8.322,1.425,8.322,6.556v8.19c0,1.266.462,1.953,1.57,1.953a2.024,2.024,0,0,0,1.173-.343l.66,1.608a5.432,5.432,0,0,1-4.71,2.3c-2.373,0-3.864-1.108-4.062-2.915Z" transform="translate(-28.446 15.871)"/>
  </g>
</svg>
